<?xml version="1.0" encoding="utf-8"?>
<!-- Generator: Adobe Illustrator 26.2.1, SVG Export Plug-In . SVG Version: 6.00 Build 0)  -->
<svg version="1.1" xmlns="http://www.w3.org/2000/svg" xmlns:xlink="http://www.w3.org/1999/xlink" x="0px" y="0px"
	 viewBox="0 0 1482.6020508 397.3013611" style="enable-background:new 0 0 1482.6020508 397.3013611;" xml:space="preserve">
<style type="text/css">
	.st0{fill:#007377;}
	.st1{fill:#FFFFFF;}
</style>
<g id="Typo_x5F_vektor">
	<g>
		<g>
			<g>
				<g>
					<g>
						<path class="st0" d="M1043.0905762,129.1632233h-37.6673584v138.2040253h29.1420898v-33.6595306h8.5252686
							c37.8371582,0,60.4238281-19.4959412,60.4238281-52.1703491
							C1103.5144043,148.7611542,1080.9277344,129.1632233,1043.0905762,129.1632233z M1042.3094482,207.9283142h-7.7441406
							v-52.9516907h7.7441406c21.3640137,0,31.2817383,8.4234924,31.2817383,26.5607452
							C1073.5911865,199.5388336,1063.6734619,207.9283142,1042.3094482,207.9283142z"/>
					</g>
					<path class="st0" d="M1123.7600098,129.293457h28.4588623v138.2312012h-28.4588623V129.293457z"/>
					<path class="st0" d="M1175.7052002,198.4082184c0-40.8583374,31.7104492-70.944664,71.5534668-70.944664
						s71.5568848,30.0863266,71.5568848,70.944664c0,40.8600006-31.7138672,70.9463348-71.5568848,70.9463348
						S1175.7052002,239.268219,1175.7052002,198.4082184z M1289.5438232,198.4082184
						c0-25.8160095-17.0780029-45.5351105-42.2851562-45.5351105s-42.2817383,19.719101-42.2817383,45.5351105
						c0,25.8176727,17.074585,45.5351257,42.2817383,45.5351257S1289.5438232,224.2258911,1289.5438232,198.4082184z"/>
				</g>
				<path class="st0" d="M1380.7617188,269.3545532c-3.4608154,0-6.510376-0.1026917-9.3200684-0.3425598
					c-18.0235596-1.5076904-28.8513184-8.0865784-38.3771973-23.4716644
					c5.4482422-3.7350006,11.4104004-7.8468781,17.578125-12.0957489l4.2487793-2.9467621
					c3.9406738,7.0929413,9.5943604,11.9928589,16.4130859,14.1858826c2.5698242,0.8223419,5.3112793,1.2335052,8.1551514,1.2335052
					c6.9559326,0,18.7088623-3.3579407,18.7088623-15.8991547c0-3.118042-0.5480957-5.4480591-1.7132568-7.4012146
					c-2.3299561-3.974884-7.4354248-6.6131744-16.6185303-10.3138885c-1.5762939-0.6510468-3.3238525-1.3363953-5.208374-2.0560455
					l-2.7755127-1.0962982c-8.4976807-3.2895508-15.3851318-6.3392029-21.2102051-10.3824921
					c-5.4482422-3.7348022-9.4229736-7.9495697-12.1298828-12.8151855
					c-3.1182861-5.6881561-4.6602783-12.3013306-4.6602783-20.2509155c0-23.0947723,17.1669922-38.0343933,43.756958-38.0343933
					c3.5294189,0,6.8530273,0.2398758,9.8684082,0.7539368c13.7060547,2.1244354,24.3625488,8.9432068,33.4429932,21.3815155
					l-8.1209717,5.6193542c-4.2147217,2.912674-8.5662842,5.9280396-12.9522705,8.9777069
					c-3.255249-5.2769928-8.1895752-9.5601501-13.6032715-11.7531891c-3.0153809-1.2335052-6.1679688-1.884552-9.3546143-1.884552
					c-15.6591797,0-16.4472656,11.3761139-16.4472656,13.6718292c0,1.987442,0.3768311,3.8376923,1.0965576,5.4482727
					c2.4671631,5.7222443,8.9431152,8.7719116,15.5222168,11.170517c0.3083496,0.1369934,0.651123,0.2398834,0.9593506,0.3425751
					l17.2355957,6.3049011c4.2487793,1.5419922,8.4633789,3.6321106,12.2324219,6.0991211
					c4.4890137,2.8783722,8.1894531,6.2020111,10.69104,9.6628418c0.239624,0.3084717,0.8907471,1.23349,1.815918,2.8097687
					c2.1243896,3.5635223,5.6881104,11.0335388,5.6881104,20.7990723c0,5.9278259,0,24.0200043-19.0516357,35.4988098
					C1398.956543,267.2301331,1387.8203125,269.3545532,1380.7617188,269.3545532z"/>
				<path class="st0" d="M679.996521,191.723053l45.5137329-62.5537872l35.534729-0.0091553l-48.9735107,67.0734406
					l52.4059448,71.1569519l-34.361145,0.0088501l-35.928894-50.1788788l-14.1908569,17.9922485v32.1995392l-28.4591675,0.0073547
					V129.188324l28.4591675-0.0073242V191.723053z"/>
				<path class="st0" d="M473.8109131,135.1499481l54.2841797,132.3747406h-30.8378296l-6.5033569-15.652832h-56.1063538
					l-6.5050354,15.6528625h-30.841156l54.2870483-132.3749695
					C455.6635132,125.2129059,469.7359924,125.213028,473.8109131,135.1499481z M481.1979675,228.08815l-18.4980774-48.7884369
					L444.2018433,228.08815H481.1979675z"/>
				<path class="st0" d="M584.8721313,269.3545837c-3.4608154,0-6.5102539-0.1026917-9.3200684-0.3425598
					c-18.0235596-1.5076904-28.8512573-8.0865479-38.3771362-23.4716339
					c5.4483032-3.7350159,11.4104004-7.8468933,17.578125-12.0957489l4.2488403-2.9467773
					c3.9406128,7.0929413,9.5942383,11.9928589,16.4130249,14.1858826c2.5698853,0.8223419,5.3112793,1.2335052,8.1551514,1.2335052
					c6.9559326,0,18.7089233-3.3579407,18.7089233-15.8991547c0-3.118042-0.5481567-5.4480591-1.7132568-7.4012146
					c-2.3300171-3.974884-7.4355469-6.6131744-16.6185913-10.3138733c-1.5762939-0.6510468-7.9838867-3.152359-7.9838867-3.152359
					c-8.4977417-3.2895355-15.3850708-6.3392029-21.2102051-10.3824768
					c-5.4483032-3.7348022-9.4229736-7.9495697-12.1298218-12.8151855
					c-3.1182861-5.6881561-4.6602783-12.3013306-4.6602783-20.2509003c0-23.0947723,17.1669312-38.0343933,43.7568359-38.0344009
					c3.5294189,0,6.8530884,0.2398834,9.8684082,0.7539444c13.7061157,2.1244354,24.3626099,8.9431915,33.4429932,21.3815155
					l-8.1208496,5.619339c-4.2147827,2.912674-8.5663452,5.9280396-12.9523926,8.9777069
					c-3.255249-5.2769928-8.1894531-9.5601501-13.6032104-11.7531738c-3.0153809-1.2335052-6.1679077-1.884552-9.3545532-1.884552
					c-15.6593018,0-16.4473267,11.3760986-16.4473267,13.671814c0,1.987442,0.3768921,3.8376923,1.0964966,5.4482727
					c2.4672241,5.7222443,8.9432373,8.7719116,15.5222778,11.170517c0.3082886,0.1369934,0.651062,0.2398834,0.9593506,0.3425751
					l17.2355347,6.3049011c4.2488403,1.5419769,8.4634399,3.6321106,12.2324829,6.0991211
					c4.4889526,2.8783722,8.1894531,6.2019958,10.690979,9.6628265c0.2396851,0.3084869,0.8907471,1.2335052,1.815979,2.8097839
					c2.1243896,3.5635071,5.6881104,11.0335236,5.6881104,20.799057c0,5.9278259,0,24.0200043-19.0516968,35.4987946
					C603.0670166,267.2301636,591.9307861,269.3545837,584.8721313,269.3545837z"/>
				<path class="st0" d="M782.8726196,129.293457h28.4588013v113.2281036h55.8161011v25.0030975h-84.2749023V129.293457z"/>
			</g>
			<polygon class="st0" points="890.0887451,129.1601105 977.111145,129.1601105 977.111145,153.8756256 918.2199707,153.8756256 
				918.2199707,187.7719269 963.3388672,187.7719269 963.3388672,211.8835144 918.2199707,211.8835144 918.2199707,242.8917847 
				979.9229736,242.8917847 979.9229736,267.6072998 890.0887451,267.6072998 			"/>
		</g>
	</g>
</g>
<g id="Signet">
	<circle class="st0" cx="198.6506805" cy="198.6506805" r="141.7322845"/>
	<g>
		<path class="st1" d="M190.6439514,271.6318665v48.4064636c0,4.428894,3.5860596,8.0149536,8.0149536,8.0149536
			c4.4124603,0,7.9985199-3.5860596,7.9985199-8.0149536v-37.350708L190.6439514,271.6318665z"/>
		<path class="st1" d="M154.1220551,223.7479248c0,8.6429291,8.2628937,15.947403,11.7993164,18.6906281
			c0.0165558,0,0.0824127,0.0826111,50.502533,34.90242v26.2925415c3.572525-0.9886475,26.7554169-8.8533325,26.7554169-24.5408325
			c0-9.2543945-9.6014709-17.0875854-12.5429993-19.2524414c-0.2809143-0.2148438-40.6864166-28.1103516-49.7590485-34.3736725
			v-26.2593689C179.0962982,199.6198425,154.1220551,207.5464172,154.1220551,223.7479248z"/>
		<polygon class="st1" points="190.6439514,188.0445251 190.6439514,220.0714722 206.6574249,231.110672 206.6574249,199.083725 		
			"/>
		<path class="st1" d="M154.1220551,140.1363525c0,8.6429443,8.2628937,15.947403,11.7993164,18.6906281
			c0.0165558,0,0.0824127,0.0826111,50.502533,34.90242v26.2925415c3.572525-0.9886475,26.7554169-8.8533173,26.7554169-24.5408173
			c0-9.2543945-9.6014709-17.0875854-12.5429993-19.2524567c-0.2809143-0.2148438-40.6864166-28.1103516-49.7590485-34.3736725
			v-26.2593689C179.0962982,116.0082703,154.1220551,123.9348602,154.1220551,140.1363525z"/>
		<path class="st1" d="M216.4239044,134.0879669c14.697525-3.1829376,22.4883118-7.1724625,23.5659485-12.0308075
			c0.888443-4.0053177-1.9089355-7.1974716-7.0163269-11.3888245c-3.6252136-2.9750214-5.5321503-6.336647-16.5496216-4.0131989
			V134.0879669z"/>
		<path class="st1" d="M184.9961853,83.4523849c0-7.5411377,6.1133423-13.65448,13.65448-13.65448
			c7.5411987,0,13.65448,6.1133423,13.65448,13.65448c0,4.5462646-2.2307129,8.5623169-5.6477051,11.0440674v53.0269699
			l-16.0134888-11.0557861V94.4965134C187.2268982,92.0147018,184.9961853,87.9986496,184.9961853,83.4523849z"/>
	</g>
</g>
</svg>
